PathFileType	4	(X/Y/Z)	Patient4_TMGait_0pt4_02_right_14.trc.trc
DataRate	CameraRate	NumFrames	NumMarkers	Units	OrigDataRate	OrigDataStartFrame	OrigNumFrames
75.268817204301	75.268817204301	6	33	mm	75.268817204301	106	       141
Frame#	Time	Sacral			L.Shoulder			Chest			R.Shoulder			Neck			R.ASIS			L.ASIS			R.Thigh.Superior			R.Thigh.Lateral			R.Thigh.Inferior			R.Patella			L.Thigh.Superior			L.Thigh.Lateral			L.Thigh.Inferior			L.Patella			L.Shank.Superior			L.Shank.Lateral			L.Shank.Inferior			R.Shank.Superior			R.Shank.Lateral			R.Shank.Inferior			R.Heel			R.Midfoot.Superior			R.Midfoot.Lateral			R.Toe			L.Heel			L.Midfoot.Lateral			L.Midfoot.Superior			L.Toe			L.Elbow			L.Wrist			R.Elbow			R.Wrist			
		X1	Y1	Z1	X2	Y2	Z2	X3	Y3	Z3	X4	Y4	Z4	X5	Y5	Z5	X6	Y6	Z6	X7	Y7	Z7	X8	Y8	Z8	X9	Y9	Z9	X10	Y10	Z10	X11	Y11	Z11	X12	Y12	Z12	X13	Y13	Z13	X14	Y14	Z14	X15	Y15	Z15	X16	Y16	Z16	X17	Y17	Z17	X18	Y18	Z18	X19	Y19	Z19	X20	Y20	Z20	X21	Y21	Z21	X22	Y22	Z22	X23	Y23	Z23	X24	Y24	Z24	X25	Y25	Z25	X26	Y26	Z26	X27	Y27	Z27	X28	Y28	Z28	X29	Y29	Z29	X30	Y30	Z30	X31	Y31	Z31	X32	Y32	Z32	X33	Y33	Z33	

106	19.425000000000	826.961970411780	1011.903214910598	427.075470978803	1018.447468946639	1435.920225479528	232.701398266762	1113.537304338325	1372.859552378120	399.838429199760	1023.205395589174	1449.485398270373	568.957528751081	993.030648998643	1501.486574255808	386.112243075022	1056.682674169876	956.190695727137	545.547211682543	1042.328941688345	966.450248521862	271.469543930437	1139.331794387800	785.948448829799	523.229815312847	1102.080425547184	666.019229377880	604.450960356271	1190.469490527515	625.303444230188	527.214678014760	1217.419205730538	525.906357015189	552.013863603619	1077.477469139524	749.925933094623	297.991736701900	977.641068819984	638.967908336710	242.394711533666	1060.317905307547	557.397419341331	300.523732886757	1056.227775213375	490.025606016616	311.113324964021	1030.107337671222	418.828204372807	305.613115495191	936.728830411912	304.007749282847	260.502960738885	992.147984766481	194.186841755356	332.625641139665	1167.074129811470	438.965276524764	565.663116649649	1072.379335213075	364.963982912299	638.607306080518	1092.030551340459	254.953166428435	592.085151442290	924.831432611114	125.327338036271	585.750711950461	1104.695350358884	130.257511490532	604.709205333270	1008.375144041600	90.595715243889	650.960811526387	1208.736588537299	50.906154048774	622.162438059460	867.046784745746	38.841960561849	383.909466187107	938.845918106608	34.624661373689	301.009803735858	1022.451557924219	96.398940697643	325.145233140286	1150.799139608372	44.970985633824	295.098617495981	1075.972894435061	1100.812300009124	88.987451718869	1256.705218912074	910.554947324206	76.435422310100	946.991479892883	1112.277885806459	693.796161777949	1005.372057153981	856.173676473782	704.519902511471	
107	19.438285714286	826.616207438545	1012.311173658801	426.306221562391	1020.737900975344	1435.907034914142	232.588405492765	1114.184032827647	1372.602663635743	400.526009242652	1022.609473301056	1449.486200143992	568.819557759843	993.924332017616	1501.494727619002	385.902454562199	1055.785593399555	956.265586162725	546.007145627600	1042.626070746080	966.416315377968	271.766743722413	1137.506604510208	785.494744672508	523.863114007318	1100.189951696396	666.123479264824	605.466857605280	1187.493934973850	624.629036989796	527.485546939287	1215.524737407912	527.751142711416	552.129652962029	1075.445171281057	749.266777847865	298.971744245216	974.893067973722	639.089525163394	242.317462689056	1056.461546524000	556.836970356905	300.748156229714	1051.692232090189	489.654388311674	311.204290769331	1025.501853749809	418.670314443776	305.614687292660	931.865307120911	304.077281207100	260.475751748567	987.031348089255	194.108645108782	332.568125972300	1170.264365912169	440.122915138109	566.414392977377	1081.569595995030	360.412413017757	640.478873400232	1107.915465794123	251.891419142515	593.532304438450	949.626736876689	112.134346577211	588.250927974001	1129.042938938694	127.619176775988	606.304397526143	1035.450997452064	82.612365345729	653.141255608946	1237.667613227378	54.428579466855	623.497220741381	861.725230790589	38.846191447136	383.874331132514	933.513221769181	34.615042109883	300.992577719363	1017.146599525009	96.357637830188	325.128068235950	1145.481280501521	44.876782635288	295.099576752584	1081.466388643539	1102.587897512762	87.271012823070	1268.947216020911	918.764081043585	75.017091995415	935.888932263416	1114.942979969163	692.493522875737	981.658893885804	856.312168073441	704.484578550671	
108	19.451571428571	826.352053834520	1012.596905273941	425.693190036340	1023.044846869168	1435.703298012842	232.654887041021	1114.899176232594	1372.200168697361	401.366125330385	1022.167897142826	1449.417239694010	568.824872283816	994.892176681338	1501.367157466430	385.844229690738	1054.956670866577	956.070925776138	546.620083286542	1042.990735370292	966.302165118607	272.206155260082	1135.272741997028	784.353615358664	524.597795435550	1097.671257786075	665.775271145953	606.682537802187	1183.731159072700	623.227871790205	527.858834039026	1212.704900465976	529.048384041806	552.257438178983	1073.543879991887	748.566657473132	299.942416716138	972.257680472165	639.176193182054	242.274131876326	1052.695116324828	556.242134109016	301.001245574755	1047.255045621035	489.263730665179	311.334705638742	1020.991974938374	418.484858624405	305.662727238749	927.100449960026	304.128206385374	260.453749531665	981.964606313654	194.008767257117	332.546605701367	1172.711592698060	441.146513797332	567.228136020511	1090.555559048720	355.957587063009	642.403924525722	1123.630838470086	249.450165362207	594.898655034087	975.086303858958	100.033583773535	590.556110781461	1153.526238929946	126.007740167001	607.792915514853	1062.897095074028	75.735829980820	655.054294058769	1266.320959699478	59.057161951921	624.503965493926	856.411524189441	38.843664501362	383.846265324966	928.182145666284	34.605998869299	300.979301822275	1011.844536640005	96.310822005033	325.124979551979	1140.164826354592	44.771945279890	295.100615414635	1086.534935859563	1104.124687620850	85.756181269964	1280.451571368477	926.888847779062	73.951375680508	925.391687943095	1117.914915852865	691.496059167026	959.336927863419	857.557510350181	704.450921305519	
109	19.464857142857	826.187023538856	1012.756733378995	425.238685523487	1025.319108617123	1435.321261279467	232.905231670185	1115.668420777906	1371.674351180512	402.351460856561	1021.889909978145	1449.297825342852	568.983210993902	995.916731747139	1501.115893972316	385.942390485540	1054.207448802851	955.625168304929	547.376505988194	1043.437395196228	966.122748311148	272.782048557915	1132.684744863029	782.597868372632	525.420975173880	1094.594066851271	665.020554405851	608.090801667573	1179.345620747412	621.215929115481	528.373818843897	1209.115880938617	529.847492965381	552.432909369329	1071.818170259674	747.821037762794	300.877294985845	969.748000775069	639.230317391916	242.283710872349	1049.023354437907	555.612802161398	301.311109756431	1042.920292832569	488.853887053581	311.537882495964	1016.579699270690	418.276482955086	305.781204432038	922.440616114127	304.166023867002	260.446150089113	976.947885115226	193.890918095025	332.572195269261	1174.434741634425	442.087143718679	568.112362927392	1099.161392607744	351.761491947985	644.296885666517	1138.879061052652	247.755978757208	596.133026704103	1000.694562172669	89.346540662810	592.489392924475	1177.666307484803	125.540588441920	609.124556733567	1090.145101280822	70.152541717111	656.570317834478	1294.140325659855	64.775624795935	625.167412923662	851.100649473274	38.839130377515	383.823641266301	922.851383027603	34.599384657608	300.969518923011	1006.544721452632	96.259876056348	325.136922860065	1134.848106818184	44.657555753475	295.102160719817	1091.212258026855	1105.413004315320	84.472733301730	1291.184013828631	934.843541961476	73.244701021995	915.582912760443	1121.135618439850	690.801944997351	938.534893528348	859.704960274908	704.457704858993	
110	19.478142857143	826.137505386790	1012.791178693045	424.942672191106	1027.516654551923	1434.787153424806	233.343476327469	1116.476446170270	1371.055121804203	403.476188753924	1021.773220438817	1449.146693516382	569.306259404611	996.976774169921	1500.759833827174	386.204236000097	1053.548626792051	954.962964638495	548.270503533442	1043.987760140636	965.893294623164	273.493526543548	1129.834518854544	780.345142229140	526.332009897172	1091.066584883888	663.915364706399	609.662778228640	1174.551490738865	618.743252460646	529.058779605815	1204.956685254221	530.218593044860	552.688590203475	1070.304312510178	747.029092898900	301.780181154844	967.380629638422	639.256490073174	242.369532025350	1045.451430809584	554.952519773170	301.714911715616	1038.690714445128	488.425963666441	311.849288678439	1012.264376662282	418.051362650166	305.994813901746	917.888340715702	304.199250663631	260.464678620701	971.979604554114	193.760606109975	332.654108879779	1175.479320043548	442.973259898923	569.064200889620	1107.177320334685	347.939717942127	646.057884001196	1153.327534035037	246.840186529082	597.189556934451	1025.819613059095	80.263864512988	593.884644931951	1200.907663366175	126.195563349435	610.254176965237	1116.531079654571	65.910971731784	657.583058974756	1320.527779510728	71.419833932288	625.510579925265	845.788345497074	38.838630831510	383.804979101173	917.520015720960	34.597529518540	300.962839412044	1001.246970722253	96.206709877963	325.164134947600	1129.529884131605	44.534877442871	295.104975654208	1095.521411499021	1106.455317788275	83.457075458719	1301.110369434845	942.546109103581	72.903380668429	906.533684193427	1124.533952691098	690.407136890100	919.358240311927	862.544845130274	704.540854766705	
111	19.491428571429	826.218113460787	1012.703080760808	424.804433720448	1029.600433455920	1434.136361011996	233.972959408013	1117.305986420152	1370.377015727158	404.736988400447	1021.800967469516	1448.979528443531	569.806374086057	998.046676511290	1500.321666992086	386.638660532666	1052.991473710078	954.130381954575	549.301057905499	1044.667321982241	965.626995849483	274.345223040970	1126.851623558440	777.750984886655	527.341439649295	1087.234162904287	662.520051261550	611.344053091882	1169.601851414014	615.982681277187	529.925003473069	1200.464096975057	530.244121181730	553.048180939762	1069.025908460897	746.192830612488	302.682365578040	965.174750765288	639.260259570984	242.556155595123	1041.987303144020	554.267688532688	302.252420444520	1034.570941685327	487.981170003139	312.300686217668	1008.045380506774	417.815463971182	306.325053488178	913.443539449211	304.238500685043	260.521815418416	967.057568816096	193.623949784661	332.797765618464	1175.917662947141	443.801374531866	570.064110625994	1114.372752210656	344.552821704456	647.576173141235	1166.619049037493	246.632223548314	598.025835687937	1049.731719824456	72.842430692774	594.597149395718	1222.630671475462	127.803148199124	611.137994271996	1141.310964667399	62.925495942397	658.016534371017	1344.850325501825	78.669307086726	625.592653483098	840.471892268632	38.848618712903	383.788865556295	912.187648678843	34.602909746783	300.958833797836	995.951378122124	96.153453971766	325.205981569629	1124.209451090311	44.405206595834	295.110046220981	1099.473259188185	1107.261488556825	82.748518498119	1310.198516777969	949.916833412356	72.932036906232	898.299818140473	1128.024904986797	690.305868893182	901.893975431055	865.866288931278	704.735028636584	
